# xmcd CD database file
#
# Track frame offsets:
#	150
#	25544
#	40929
#
# Disc length: 734 seconds
#
# Revision: 0
# Processed by: cddbd v1.5PL3 Copyright (c) Steve Scherf et al.
# Submitted via: CDex 1.40Release
#
DISCID=1702dc03
DTITLE=大正九年 - 三つの世界
DYEAR=1999
DGENRE=Pop
TTITLE0=三つの世界
TTITLE1=ベイベ
TTITLE2=ジャズ喫茶
EXTD=YEAR: 1999 ID3G: 13
EXTT0=
EXTT1=
EXTT2=
PLAYORDER=
